# xmcd
# Track frame offsets:
# 150
# 18646
# 38035
# 55482
# 77831
# 96604
# 115418
# 151860
# 170383
# 182291
# 214245
#
# Disc length: 3081 seconds
# Revision: 1
# Processed by: cddbd v1.5.2PL0 Copyright (c) Steve Scherf et al.
# Submitted via: VisiTrax 2.10.1.251 - For more info visit www.synapsa.com
#
DISCID=900c070b
DTITLE=Armin Heitz - Voyage
DYEAR=2000
DGENRE=Jazz
TTITLE0=I Love You
TTITLE1=Autumn Leaves
TTITLE2=Donna Lee
TTITLE3=The Shadow of Your Smile
TTITLE4=One Note Samba
TTITLE5=Voyage
TTITLE6=Polka Dots and Moonbeams
TTITLE7=Scrapple from the Apple
TTITLE8=So What
TTITLE9=Round Midnight
TTITLE10=Caravan
EXTD=
EXTT0=
EXTT1=
EXTT2=
EXTT3=
EXTT4=
EXTT5=
EXTT6=
EXTT7=
EXTT8=
EXTT9=
EXTT10=
PLAYORDER=
